/* XPM */
static char * geisview32x32_xpm[] = {
"32 32 706 2",
"  	c None",
". 	c #C6C6CC",
"+ 	c #BCBCBF",
"@ 	c #B7B7BD",
"# 	c #E1E1E3",
"$ 	c #ACACB2",
"% 	c #BAB9C1",
"& 	c #E3E2EB",
"* 	c #E5E5E8",
"= 	c #DBDBD9",
"- 	c #9D9DA5",
"; 	c #111016",
"> 	c #8B8B8A",
", 	c #DBDBDA",
"' 	c #A6A5AF",
") 	c #FAFAFB",
"! 	c #D2D2D2",
"~ 	c #E7E7E7",
"{ 	c #6D6069",
"] 	c #96989F",
"^ 	c #C4C7CF",
"/ 	c #B3B5BE",
"( 	c #2B2B34",
"_ 	c #CCCCCC",
": 	c #D0D0DC",
"< 	c #93929E",
"[ 	c #DEDEE8",
"} 	c #74747B",
"| 	c #B9B9BD",
"1 	c #DFE0EF",
"2 	c #9B8387",
"3 	c #F3C1C0",
"4 	c #C89595",
"5 	c #8D6C6C",
"6 	c #9D7F84",
"7 	c #878796",
"8 	c #88878C",
"9 	c #B0B1BD",
"0 	c #86858A",
"a 	c #B1B1B3",
"b 	c #E5E3F6",
"c 	c #75747C",
"d 	c #A9A9B6",
"e 	c #D3D4DE",
"f 	c #BD908F",
"g 	c #BE9190",
"h 	c #906A6B",
"i 	c #DEACA9",
"j 	c #AA989E",
"k 	c #DCDFE2",
"l 	c #DCDBE0",
"m 	c #ABACA9",
"n 	c #FFFFFF",
"o 	c #BBBBC5",
"p 	c #8A8995",
"q 	c #89888F",
"r 	c #696875",
"s 	c #686975",
"t 	c #C0C1D5",
"u 	c #83727D",
"v 	c #A29A9F",
"w 	c #DCDFE7",
"x 	c #E5E8EF",
"y 	c #393741",
"z 	c #FAFBFD",
"A 	c #F9F9FD",
"B 	c #AFAFBC",
"C 	c #8F8F98",
"D 	c #8B8B98",
"E 	c #7A7989",
"F 	c #3F3F43",
"G 	c #7E7D8D",
"H 	c #E2E2E7",
"I 	c #FBFCFD",
"J 	c #F7F7FA",
"K 	c #434146",
"L 	c #70646B",
"M 	c #41434B",
"N 	c #000000",
"O 	c #020003",
"P 	c #454546",
"Q 	c #C2C1C4",
"R 	c #62626A",
"S 	c #B5B4C0",
"T 	c #FEFDFD",
"U 	c #E2E5ED",
"V 	c #8B8C98",
"W 	c #4F4B50",
"X 	c #AC8383",
"Y 	c #C59E9D",
"Z 	c #BD9493",
"` 	c #8B6B6C",
" .	c #B88F8E",
"..	c #645A58",
"+.	c #5F5E5E",
"@.	c #B8B8B9",
"#.	c #9B9A9F",
"$.	c #96979E",
"%.	c #434441",
"&.	c #1C1C1F",
"*.	c #343338",
"=.	c #2F323D",
"-.	c #82696B",
";.	c #705455",
">.	c #5E4B4A",
",.	c #9B7B7C",
"'.	c #917B79",
").	c #BF9997",
"!.	c #81676B",
"~.	c #DBACAC",
"{.	c #544443",
"].	c #9C9D9C",
"^.	c #8F8F90",
"/.	c #D5D5D6",
"(.	c #777679",
"_.	c #8A8A8A",
":.	c #747474",
"<.	c #595A5B",
"[.	c #987474",
"}.	c #9B7C7C",
"|.	c #4C3F3F",
"1.	c #CD9B9B",
"2.	c #E6B4B4",
"3.	c #453436",
"4.	c #E3C2C2",
"5.	c #FDC3C1",
"6.	c #FFD6D8",
"7.	c #544D51",
"8.	c #6D6F71",
"9.	c #DADBDF",
"0.	c #828286",
"a.	c #C2C2C5",
"b.	c #444543",
"c.	c #AAAAAB",
"d.	c #CECFCF",
"e.	c #7D7A79",
"f.	c #322424",
"g.	c #9C7678",
"h.	c #FFC4C5",
"i.	c #FFC9CA",
"j.	c #B68C8E",
"k.	c #886666",
"l.	c #FFDDDD",
"m.	c #A88282",
"n.	c #E8C2C1",
"o.	c #0C090B",
"p.	c #636366",
"q.	c #C2C2CB",
"r.	c #C9C8D3",
"s.	c #91919A",
"t.	c #AAAAAE",
"u.	c #0F0F0F",
"v.	c #A2A1AB",
"w.	c #656367",
"x.	c #A68D8C",
"y.	c #FFDFDF",
"z.	c #FBD4D4",
"A.	c #D1A8A8",
"B.	c #A28483",
"C.	c #FFD2D4",
"D.	c #FAD1D1",
"E.	c #FFE2E0",
"F.	c #876E70",
"G.	c #5B4F54",
"H.	c #50525D",
"I.	c #868697",
"J.	c #F8F8FF",
"K.	c #767685",
"L.	c #ABACAF",
"M.	c #DADADB",
"N.	c #DDDDDD",
"O.	c #B2B2B3",
"P.	c #7F7F82",
"Q.	c #515150",
"R.	c #9999A6",
"S.	c #51535C",
"T.	c #675352",
"U.	c #836B6D",
"V.	c #FFEBEC",
"W.	c #301F1F",
"X.	c #EFC7C7",
"Y.	c #FFDCDC",
"Z.	c #FFE5E6",
"`.	c #978886",
" +	c #E4E6EA",
".+	c #EEEDF0",
"++	c #C0BFCF",
"@+	c #757785",
"#+	c #A7A5B8",
"$+	c #9D9AA2",
"%+	c #D4D2D5",
"&+	c #E9E5E6",
"*+	c #DFDDE0",
"=+	c #BFB9C7",
"-+	c #CBCACC",
";+	c #97959C",
">+	c #99989E",
",+	c #D1D1D2",
"'+	c #999999",
")+	c #717185",
"!+	c #CFD0DD",
"~+	c #5E5E6E",
"{+	c #332626",
"]+	c #DEACAA",
"^+	c #90848C",
"/+	c #B8B7BF",
"(+	c #2B2B30",
"_+	c #464041",
":+	c #534241",
"<+	c #4A4B50",
"[+	c #FDFEFD",
"}+	c #FCFBFC",
"|+	c #E3E3E8",
"1+	c #A8A5AF",
"2+	c #B0B0AF",
"3+	c #FFFFFA",
"4+	c #FAF5E3",
"5+	c #F9F3DC",
"6+	c #F9F3DA",
"7+	c #F2F1EE",
"8+	c #504F55",
"9+	c #A8A6A9",
"0+	c #D5D5D4",
"a+	c #85868F",
"b+	c #9D9DA1",
"c+	c #ECECF0",
"d+	c #FFFEFE",
"e+	c #57585D",
"f+	c #666677",
"g+	c #C1C0D3",
"h+	c #545768",
"i+	c #E4ABA7",
"j+	c #A5A8B3",
"k+	c #FCFDFA",
"l+	c #2D2C2D",
"m+	c #71717D",
"n+	c #787A8B",
"o+	c #D6D5DC",
"p+	c #9F9CA9",
"q+	c #BBBCBB",
"r+	c #D9D9DA",
"s+	c #FEFEFA",
"t+	c #FCFAF2",
"u+	c #F8F2DB",
"v+	c #F7EFD1",
"w+	c #FFFDE3",
"x+	c #48474B",
"y+	c #5C5A61",
"z+	c #D5D5D5",
"A+	c #707074",
"B+	c #D4D4D5",
"C+	c #C0C1CD",
"D+	c #E3E3FB",
"E+	c #D8D8DD",
"F+	c #170D31",
"G+	c #545361",
"H+	c #C2C2DA",
"I+	c #5A5A6B",
"J+	c #C0A6B2",
"K+	c #FDFFFF",
"L+	c #FBFAFB",
"M+	c #E0E1ED",
"N+	c #BDBAC2",
"O+	c #9B7A79",
"P+	c #FFCACC",
"Q+	c #EAB2B0",
"R+	c #C39897",
"S+	c #E9E5EE",
"T+	c #CDCECD",
"U+	c #FCFBF6",
"V+	c #FDFAF2",
"W+	c #FAF7ED",
"X+	c #FBF7E6",
"Y+	c #ADACB2",
"Z+	c #75717A",
"`+	c #98979D",
" @	c #AEAEAE",
".@	c #ACADAD",
"+@	c #E3E4FC",
"@@	c #F3F5FF",
"#@	c #8570B9",
"$@	c #7A5FBC",
"%@	c #5C5871",
"&@	c #B7B6CC",
"*@	c #55535D",
"=@	c #A8A7BB",
"-@	c #E5E5EC",
";@	c #836E6F",
">@	c #F0C4C2",
",@	c #CA9E9D",
"'@	c #291E1F",
")@	c #21242C",
"!@	c #3B3C47",
"~@	c #838390",
"{@	c #F9F7F8",
"]@	c #FFFCEE",
"^@	c #FBF9EE",
"/@	c #FAF8EC",
"(@	c #FBF8EE",
"_@	c #FAF8ED",
":@	c #FEFCF4",
"<@	c #CBC7D4",
"[@	c #5E5254",
"}@	c #4C4A50",
"|@	c #BEBEBE",
"1@	c #B3B3B2",
"2@	c #9999AC",
"3@	c #BABCC8",
"4@	c #856BC4",
"5@	c #926FE2",
"6@	c #8E9098",
"7@	c #9190A1",
"8@	c #848492",
"9@	c #B4B5B9",
"0@	c #858592",
"a@	c #C1C6C8",
"b@	c #EAB0B0",
"c@	c #E5B2B2",
"d@	c #EEC0BF",
"e@	c #C09695",
"f@	c #B8918F",
"g@	c #999BA4",
"h@	c #BFBEC6",
"i@	c #F9F3F7",
"j@	c #F9F3DD",
"k@	c #F8F3DA",
"l@	c #FAF7EB",
"m@	c #D3D0D6",
"n@	c #302826",
"o@	c #807272",
"p@	c #6B6B6B",
"q@	c #E3E3E2",
"r@	c #A8A7B0",
"s@	c #727381",
"t@	c #C4AD3F",
"u@	c #7D6A79",
"v@	c #775DB4",
"w@	c #C2C3D7",
"x@	c #7A7A89",
"y@	c #5B5B65",
"z@	c #B1AFC5",
"A@	c #373B42",
"B@	c #E0BABB",
"C@	c #FCBCBB",
"D@	c #E8B1B1",
"E@	c #C8A4A1",
"F@	c #ECCCCD",
"G@	c #51494D",
"H@	c #C0C1C5",
"I@	c #D3D2D9",
"J@	c #9B97A4",
"K@	c #FEFCF3",
"L@	c #F8F1D0",
"M@	c #F8EFCF",
"N@	c #F8F2DA",
"O@	c #FAF8EF",
"P@	c #FAF9F3",
"Q@	c #F0EDFA",
"R@	c #665A5B",
"S@	c #7B6C6C",
"T@	c #101111",
"U@	c #807F8A",
"V@	c #B2B2B6",
"W@	c #444544",
"X@	c #8A758C",
"Y@	c #6A589B",
"Z@	c #A180F2",
"`@	c #545165",
" #	c #ABACBE",
".#	c #060607",
"+#	c #7E8288",
"@#	c #645356",
"##	c #FFC6C7",
"$#	c #FBBEBD",
"%#	c #B0898B",
"&#	c #E5B5B6",
"*#	c #816B6B",
"=#	c #5A585D",
"-#	c #EFEDEE",
";#	c #FEFDFF",
">#	c #96939F",
",#	c #1A1B1E",
"'#	c #B9B5BD",
")#	c #FFFDF3",
"!#	c #FFFEEC",
"~#	c #FFFFF5",
"{#	c #E2D3DE",
"]#	c #908891",
"^#	c #978688",
"/#	c #3C3334",
"(#	c #5E5D5D",
"_#	c #76767D",
":#	c #EBEAE9",
"<#	c #715EA0",
"[#	c #9277C7",
"}#	c #534766",
"|#	c #67557F",
"1#	c #858791",
"2#	c #332653",
"3#	c #181229",
"4#	c #A087E2",
"5#	c #F3BAB5",
"6#	c #E0AEAD",
"7#	c #8B6F70",
"8#	c #BD9797",
"9#	c #886968",
"0#	c #000002",
"a#	c #FCFDFF",
"b#	c #FAFAFA",
"c#	c #FEFEFD",
"d#	c #484953",
"e#	c #B1ADB7",
"f#	c #1F1E20",
"g#	c #46444D",
"h#	c #A4A2AE",
"i#	c #C0ACB2",
"j#	c #312B2D",
"k#	c #867778",
"l#	c #7C7F7E",
"m#	c #FEFEFE",
"n#	c #545458",
"o#	c #1A1032",
"p#	c #292440",
"q#	c #685955",
"r#	c #604C8D",
"s#	c #828493",
"t#	c #382761",
"u#	c #7659BD",
"v#	c #836591",
"w#	c #FFCBCA",
"x#	c #664F51",
"y#	c #231E21",
"z#	c #0C0E11",
"A#	c #838491",
"B#	c #E9EAFE",
"C#	c #FDFCFD",
"D#	c #FFFFFE",
"E#	c #D4D4D4",
"F#	c #64636C",
"G#	c #99939D",
"H#	c #B1ABB6",
"I#	c #A8A4B0",
"J#	c #9E959D",
"K#	c #D9B9B9",
"L#	c #110E14",
"M#	c #010003",
"N#	c #3F3F3F",
"O#	c #FDFDFD",
"P#	c #E1E1E0",
"Q#	c #C4C5C1",
"R#	c #664EA3",
"S#	c #7260A6",
"T#	c #8F78C6",
"U#	c #A586F0",
"V#	c #544189",
"W#	c #664DA6",
"X#	c #8D6ADA",
"Y#	c #7054B4",
"Z#	c #7B5F83",
"`#	c #FFD1D0",
" $	c #1D1312",
".$	c #2C2C31",
"+$	c #B8B6C6",
"@$	c #FEFEFB",
"#$	c #EBEAEA",
"$$	c #909195",
"%$	c #50505B",
"&$	c #010000",
"*$	c #CAADA6",
"=$	c #E6CAC7",
"-$	c #B6999A",
";$	c #120F14",
">$	c #7557BA",
",$	c #000100",
"'$	c #4C4C4C",
")$	c #B1AEB7",
"!$	c #3D315A",
"~$	c #705E9A",
"{$	c #795DBC",
"]$	c #644AA1",
"^$	c #B390FF",
"/$	c #8A69DA",
"($	c #4B3A79",
"_$	c #694FA5",
":$	c #7E6196",
"<$	c #4D3A41",
"[$	c #B0B0BD",
"}$	c #ECECEE",
"|$	c #CAC9CC",
"1$	c #CBCBCB",
"2$	c #EBECEB",
"3$	c #BBB9C7",
"4$	c #575171",
"5$	c #7959B1",
"6$	c #2A2127",
"7$	c #926DE3",
"8$	c #6951AF",
"9$	c #3E3064",
"0$	c #1C1431",
"a$	c #020009",
"b$	c #A3A3A3",
"c$	c #43346E",
"d$	c #4E436E",
"e$	c #5D488B",
"f$	c #503B83",
"g$	c #B293FF",
"h$	c #A585F9",
"i$	c #AA88FF",
"j$	c #463574",
"k$	c #533E82",
"l$	c #6D52A7",
"m$	c #68529A",
"n$	c #757882",
"o$	c #FAFAFD",
"p$	c #CECED1",
"q$	c #78797A",
"r$	c #DCDCDB",
"s$	c #FDFDFE",
"t$	c #E4E5F6",
"u$	c #6A648B",
"v$	c #AA7CFF",
"w$	c #1F1833",
"x$	c #513E82",
"y$	c #946FF9",
"z$	c #7758BF",
"A$	c #594391",
"B$	c #402E68",
"C$	c #362958",
"D$	c #848584",
"E$	c #7C6F98",
"F$	c #AD8CF3",
"G$	c #261F38",
"H$	c #8463C5",
"I$	c #917872",
"J$	c #9B85B6",
"K$	c #A181FA",
"L$	c #B08FFF",
"M$	c #4E3982",
"N$	c #3C2E61",
"O$	c #9878E4",
"P$	c #4B3977",
"Q$	c #644A9B",
"R$	c #71688D",
"S$	c #6A6B70",
"T$	c #E5E4EA",
"U$	c #8D8C92",
"V$	c #B9B9BA",
"W$	c #EBEBF1",
"X$	c #C5C6E0",
"Y$	c #62508D",
"Z$	c #9473E0",
"`$	c #523C82",
" %	c #7A638D",
".%	c #9D885B",
"+%	c #7A5CC0",
"@%	c #7558B2",
"#%	c #553F88",
"$%	c #7659B9",
"%%	c #363733",
"&%	c #7D6EA2",
"*%	c #423463",
"=%	c #926EE6",
"-%	c #8A71BA",
";%	c #D7BC16",
">%	c #8E7A7F",
",%	c #B193FE",
"'%	c #AC8AFF",
")%	c #9C7BE9",
"!%	c #312551",
"~%	c #B690FF",
"{%	c #06050B",
"]%	c #08070F",
"^%	c #9C75FC",
"/%	c #9069EE",
"(%	c #737283",
"_%	c #AAAAB1",
":%	c #92929B",
"<%	c #B0B1B6",
"[%	c #FCFBFD",
"}%	c #CBCBDB",
"|%	c #828193",
"1%	c #A17FF5",
"2%	c #9772F5",
"3%	c #6A50AE",
"4%	c #8D70CB",
"5%	c #846AC2",
"6%	c #8065C0",
"7%	c #9979E8",
"8%	c #8562EC",
"9%	c #9A7CE5",
"0%	c #4A484E",
"a%	c #847D97",
"b%	c #A17FF8",
"c%	c #8A6DDE",
"d%	c #9F85DE",
"e%	c #9B80EA",
"f%	c #A286E0",
"g%	c #8772A6",
"h%	c #8C7591",
"i%	c #AD91FD",
"j%	c #A47FFF",
"k%	c #AE90FE",
"l%	c #513D89",
"m%	c #6E52AD",
"n%	c #9E74FF",
"o%	c #767097",
"p%	c #9394A4",
"q%	c #BFBFC6",
"r%	c #A8A9B2",
"s%	c #D6D6DE",
"t%	c #636079",
"u%	c #9872F6",
"v%	c #A888FC",
"w%	c #A483FF",
"x%	c #8966E2",
"y%	c #B092FF",
"z%	c #AC8FFB",
"A%	c #9E79FF",
"B%	c #9881E9",
"C%	c #D5B800",
"D%	c #9B8096",
"E%	c #4E3C7C",
"F%	c #938C9F",
"G%	c #826872",
"H%	c #AD9D2F",
"I%	c #A88AF8",
"J%	c #AD91FF",
"K%	c #B695FF",
"L%	c #857183",
"M%	c #8E799C",
"N%	c #B093FF",
"O%	c #AF92FF",
"P%	c #AD90FD",
"Q%	c #AC8BFF",
"R%	c #9A74F2",
"S%	c #523F88",
"T%	c #A47AFF",
"U%	c #7A6D9E",
"V%	c #9A99A4",
"W%	c #908F99",
"X%	c #A9A9B5",
"Y%	c #867AA5",
"Z%	c #534577",
"`%	c #A078FF",
" &	c #AF91FF",
".&	c #B093FE",
"+&	c #A180FD",
"@&	c #AE92FD",
"#&	c #AE90FD",
"$&	c #AA8CFC",
"%&	c #A085E6",
"&&	c #88757C",
"*&	c #9D84D9",
"=&	c #A684FF",
"-&	c #F2F5EB",
";&	c #594198",
">&	c #9178D8",
",&	c #AC90F7",
"'&	c #AF92FE",
")&	c #AD92FC",
"!&	c #B497FF",
"~&	c #B193FF",
"{&	c #AE93FE",
"]&	c #B092FD",
"^&	c #AF92FC",
"/&	c #AF93FB",
"(&	c #A280FA",
"_&	c #9770FB",
":&	c #8C69E6",
"<&	c #ACABBF",
"[&	c #9A9BA5",
"}&	c #9B99A9",
"|&	c #C0C4CE",
"1&	c #7353BC",
"2&	c #9F7CFF",
"3&	c #B094FE",
"4&	c #AF93FE",
"5&	c #AD92FD",
"6&	c #AE91FD",
"7&	c #AD91FC",
"8&	c #A685FD",
"9&	c #AD8CFF",
"0&	c #9C77FE",
"a&	c #9B76FC",
"b&	c #9B76FD",
"c&	c #9A75FC",
"d&	c #9A75FD",
"e&	c #9A74FC",
"f&	c #9B75FD",
"g&	c #9974FD",
"h&	c #9873FE",
"i&	c #9A73FD",
"j&	c #956DFB",
"k&	c #AF9EE8",
"l&	c #C0C0DA",
"m&	c #ADA3D4",
"n&	c #9A73FE",
"o&	c #9A74FD",
"p&	c #9974FC",
"q&	c #9973FC",
"r&	c #9973FD",
"s&	c #9872FE",
"t&	c #9872FD",
"u&	c #9872FC",
"v&	c #9871FD",
"w&	c #9871FC",
"                                                                ",
"                          . + @ #                               ",
"                  $ % &   * = - ; >                             ",
"              , ' ) ! ~   { ] ^ / ( _   :                       ",
"              < [ } | 1 2 3 4 5 6 7 8 9 0                       ",
"            a b c d e f g h i j k l m n o p                     ",
"            q r s t u v w x y z n A B C D                       ",
"            E F G H I n n J K L M N O P N                       ",
"          Q R S n n T U V W X Y Z `  ...+.@.                    ",
"          #.$.%.&.*.=.-.;.>.,.'.).!.~.{.].^.                    ",
"          /.(._.:.<.[.}.|.1.2.3.4.5.6.7.8.9.0.                  ",
"          a.b.c.d.e.f.g.h.i.j.k.l.m.n.o.p.q.r.s.                ",
"          t.u.v.n w.x.y.z.A.B.C.D.E.F.G.H.I.J.K.L.M.N.          ",
"        O.P.Q.R.n S.T.U.V.W.X.Y.Z.`. +.+++@+#+$+%+&+*+=+-+      ",
"      ;+>+,+'+)+!+~+{+]+^+/+(+_+:+<+[+}+|+1+2+3+4+5+6+7+8+9+    ",
"  0+a+b+c+d+e+f+g+h+i+j+n k+n l+N m+n+o+p+q+r+s+t+u+v+w+x+y+z+  ",
"  A+B+C+D+E+F+G+H+I+J+K+L+M+N+O+P+Q+R+N S+T+n U+V+W+4+X+Y+Z+`+  ",
"   @.@+@@@#@$@%@&@*@=@-@J.;@>@,@'@)@!@~@{@]@^@/@(@_@W+:@<@[@}@|@",
"    1@2@3@4@5@6@7@8@9@0@a@b@c@d@e@f@g@h@i@j@u+k@l@(@W+m@n@o@N p@",
"  q@r@s@t@u@v@w@x@y@z@A@B@C@D@E@F@G@H@I@J@K@L@M@N@O@P@Q@R@S@T@n ",
"  U@V@W@X@Y@Z@`@ #.#+#@###$#%#&#*#=#-#;#>#,#'#)#!#~#{#]#^#/#(#n ",
"  _#:#<#[#}#|#1#2#3#4#5#6#7#8#9#0#a#b#c#d#e#f#0#g#h#i#j#k#l#n m#",
"  n#n o#p#q#r#s#t#u#v#w#x#y#z#A#B#C#D#E#F#N G#H#I#J#K#L#M#N#n O#",
"P#Q#R#S#T#U#V#W#X#Y#Z#`# $.$+$n @$m#c##$$$%$&$*$=$-$;$>$,$N '$n ",
"n )$!$~${$]$^$/$($_$:$<$[$}$|$m#n 1$m#n 2$3$4$5$6$N 7$8$9$0$a$b$",
"n c$d$e$f$g$h$i$j$k$l$N m$n$) o$p$q$r$m#s$t$u$v$w$x$y$z$A$B$C$D$",
"E$F$G$H$I$J$K$L$M$N$O$N P$Q$R$S$T$U$V$n W$X$Y$Z$`$ %.%+%@%#%$%%%",
"&%*%=%-%;%>%,%'%)%!%~%{%]%^%/%(%_%:%<%[%}%|%1%2%3%4%5%6%7%8%9%0%",
"a%b%c%d%e%f%g%h%i%j%k%l%N m%n%o%p%q%r%s%t%u%v%w%x%y%z%A%B%C%D%E%",
"F%G%H%I%J%K%L%M%N%O%P%Q%R%S%T%U%V%W%X%Y%Z%`% &.&+&@&#&$&%&&&*&=&",
"-&;&>&,&'&)&!&~&@&{&]&^&/&(&_&:&<&[&}&|&1&2&3&4&5&@&6&6&P%y%7&8&",
"D#9&0&a&b&b&b&c&d&e&d&f&c&g&h&i&j&k&l&m&f&n&o&p&q&r&s&t&u&v&w&o&"};
